<svg width="20" height="29" viewBox="0 0 20 29" fill="none" xmlns="http://www.w3.org/2000/svg">
<path d="M11.6598 13.0905V13.0955C9.90592 14.139 8.53418 15.7513 7.79276 17.6759L7.7926 17.6763C7.53861 18.3415 7.35984 19.0417 7.26625 19.77L7.24452 19.9391H7.26991V21.3801V21.5301H7.41991H12.8581H13.0081V21.3801V19.7891V19.7848C13.2954 18.9631 13.8796 18.2797 14.6337 17.861L15.1399 17.5798H15.0781C17.4634 15.9897 19.0576 13.3097 19.1459 10.2514L19.15 10.254V9.98365C19.15 4.93891 15.0526 0.85 10 0.85C4.94907 0.85 0.85 4.93855 0.85 9.98365V10.1337H1H6.32181H6.47181V9.98365C6.47181 8.0419 8.05605 6.46195 10.0001 6.46195C11.9456 6.46195 13.5284 8.04185 13.5284 9.98365C13.5284 11.2946 12.8051 12.4416 11.7358 13.0474L11.6598 13.0905Z" fill="white" stroke="white" stroke-width="0.3"/>
<path d="M7.41956 23.2927H7.26956V23.4427V27.928V28.078H7.41956H12.8577H13.0077V27.928V23.4427V23.2927H12.8577H7.41956Z" fill="white" stroke="white" stroke-width="0.3"/>
</svg>
