<svg width="30" height="30" viewBox="0 0 30 30" fill="none" xmlns="http://www.w3.org/2000/svg">
<path d="M15.0004 5.2001L15.0005 5.1999C16.9954 5.19999 18.849 5.80349 20.399 6.83244L6.57238 19.9763C5.7057 18.515 5.20041 16.8169 5.20041 15.0001C5.20041 9.59678 9.59709 5.2001 15.0004 5.2001ZM14.9999 24.7998H14.9549C12.9775 24.7908 11.1395 24.1886 9.60104 23.1679L23.4272 10.0235C24.2951 11.4844 24.7999 13.1829 24.7999 14.9998C24.7999 20.4031 20.4032 24.7998 14.9999 24.7998ZM15 0.8C7.17015 0.8 0.8 7.17015 0.8 15C0.8 22.8304 7.17016 29.2 15 29.2C22.8304 29.2 29.2 22.8304 29.2 15C29.2 7.17016 22.8304 0.8 15 0.8Z" fill="white" stroke="white" stroke-width="0.4"/>
</svg>
