<svg width="225" height="73" viewBox="0 0 225 73" fill="none" xmlns="http://www.w3.org/2000/svg">
<g filter="url(#filter0_d_233_2)">
<path d="M32.6465 36H26.5918C26.4453 36 26.3639 35.9186 26.3477 35.7559L20.4395 1.40527C20.4069 1.27507 20.4557 1.20996 20.5859 1.20996H26.2012C26.3314 1.20996 26.4128 1.27507 26.4453 1.40527L29.6436 23.9883L32.9395 1.40527C32.972 1.27507 33.0697 1.20996 33.2324 1.20996H37.749C37.8792 1.20996 37.9606 1.27507 37.9932 1.40527L41.2402 23.9883L44.4873 1.40527C44.5199 1.27507 44.6012 1.20996 44.7314 1.20996H50.2979C50.4606 1.20996 50.5257 1.27507 50.4932 1.40527L44.5361 35.7559C44.5199 35.821 44.471 35.8779 44.3896 35.9268L44.292 36H38.2373C38.1396 36 38.0583 35.9186 37.9932 35.7559L35.4297 17.8115L32.8906 35.7559C32.8743 35.9186 32.793 36 32.6465 36ZM62.6758 36.4883C60.9017 36.4883 59.266 36.0326 57.7686 35.1211C56.2874 34.2096 55.0911 32.9971 54.1797 31.4834C53.2845 29.9535 52.8369 28.277 52.8369 26.4541L52.8857 10.6094C52.8857 8.75391 53.3333 7.08561 54.2285 5.60449C55.1074 4.1071 56.2956 2.91081 57.793 2.01562C59.2904 1.10417 60.918 0.648438 62.6758 0.648438C64.4987 0.648438 66.1344 1.09603 67.583 1.99121C69.0479 2.88639 70.2197 4.09082 71.0986 5.60449C71.9938 7.10189 72.4414 8.77018 72.4414 10.6094L72.4902 26.4541C72.4902 28.277 72.0508 29.9453 71.1719 31.459C70.2767 32.9889 69.0885 34.2096 67.6074 35.1211C66.1263 36.0326 64.4824 36.4883 62.6758 36.4883ZM62.6758 30.458C63.6849 30.458 64.5638 30.0511 65.3125 29.2373C66.0612 28.4072 66.4355 27.4795 66.4355 26.4541L66.3867 10.6094C66.3867 9.5026 66.0368 8.56673 65.3369 7.80176C64.637 7.03678 63.75 6.6543 62.6758 6.6543C61.6504 6.6543 60.7715 7.02865 60.0391 7.77734C59.3066 8.52604 58.9404 9.47005 58.9404 10.6094V26.4541C58.9404 27.5446 59.3066 28.4886 60.0391 29.2861C60.7715 30.0674 61.6504 30.458 62.6758 30.458ZM82.1338 36H76.4697C76.3395 36 76.2744 35.9186 76.2744 35.7559L76.3721 1.40527C76.3721 1.27507 76.4372 1.20996 76.5674 1.20996H86.6748C88.4814 1.20996 90.1416 1.64941 91.6553 2.52832C93.1689 3.40723 94.3734 4.58724 95.2686 6.06836C96.18 7.54948 96.6357 9.22591 96.6357 11.0977C96.6357 12.3184 96.4486 13.4251 96.0742 14.418C95.6999 15.4108 95.2604 16.249 94.7559 16.9326C94.2676 17.6162 93.82 18.1208 93.4131 18.4463C95.2197 20.4482 96.123 22.8001 96.123 25.502L96.1719 35.7559C96.1719 35.9186 96.0905 36 95.9277 36H90.2637C90.1335 36 90.0684 35.9512 90.0684 35.8535V25.502C90.0684 24.2975 89.6452 23.2559 88.7988 22.377C87.9525 21.498 86.9108 21.0586 85.6738 21.0586H82.3779L82.3291 35.7559C82.3291 35.9186 82.264 36 82.1338 36ZM86.6748 7.19141H82.3779V15.0527H86.6748C87.7002 15.0527 88.6117 14.6702 89.4092 13.9053C90.223 13.1403 90.6299 12.2044 90.6299 11.0977C90.6299 10.0397 90.2393 9.12826 89.458 8.36328C88.6768 7.58203 87.749 7.19141 86.6748 7.19141ZM109.6 35.9512L100.64 36C100.477 36 100.396 35.9186 100.396 35.7559L100.493 1.40527C100.493 1.27507 100.558 1.20996 100.688 1.20996L110.039 1.16113C111.895 1.1123 113.571 1.53548 115.068 2.43066C116.582 3.32585 117.786 4.53841 118.682 6.06836C119.593 7.58203 120.049 9.25846 120.049 11.0977V25.4531C120.049 27.3737 119.585 29.1315 118.657 30.7266C117.713 32.3053 116.46 33.5667 114.897 34.5107C113.335 35.4385 111.569 35.9186 109.6 35.9512ZM110.039 7.14258L106.548 7.19141L106.499 29.8477H109.6C110.837 29.8477 111.878 29.4163 112.725 28.5537C113.571 27.6911 113.994 26.6576 113.994 25.4531V11.0488C113.994 9.99089 113.604 9.07129 112.822 8.29004C112.041 7.49251 111.113 7.11003 110.039 7.14258ZM134.648 36H128.594C128.447 36 128.366 35.9186 128.35 35.7559L122.441 1.40527C122.409 1.27507 122.458 1.20996 122.588 1.20996H128.203C128.333 1.20996 128.415 1.27507 128.447 1.40527L131.646 23.9883L134.941 1.40527C134.974 1.27507 135.072 1.20996 135.234 1.20996H139.751C139.881 1.20996 139.963 1.27507 139.995 1.40527L143.242 23.9883L146.489 1.40527C146.522 1.27507 146.603 1.20996 146.733 1.20996H152.3C152.463 1.20996 152.528 1.27507 152.495 1.40527L146.538 35.7559C146.522 35.821 146.473 35.8779 146.392 35.9268L146.294 36H140.239C140.142 36 140.06 35.9186 139.995 35.7559L137.432 17.8115L134.893 35.7559C134.876 35.9186 134.795 36 134.648 36ZM164.678 36.4883C162.904 36.4883 161.268 36.0326 159.771 35.1211C158.289 34.2096 157.093 32.9971 156.182 31.4834C155.286 29.9535 154.839 28.277 154.839 26.4541L154.888 10.6094C154.888 8.75391 155.335 7.08561 156.23 5.60449C157.109 4.1071 158.298 2.91081 159.795 2.01562C161.292 1.10417 162.92 0.648438 164.678 0.648438C166.501 0.648438 168.136 1.09603 169.585 1.99121C171.05 2.88639 172.222 4.09082 173.101 5.60449C173.996 7.10189 174.443 8.77018 174.443 10.6094L174.492 26.4541C174.492 28.277 174.053 29.9453 173.174 31.459C172.279 32.9889 171.09 34.2096 169.609 35.1211C168.128 36.0326 166.484 36.4883 164.678 36.4883ZM164.678 30.458C165.687 30.458 166.566 30.0511 167.314 29.2373C168.063 28.4072 168.438 27.4795 168.438 26.4541L168.389 10.6094C168.389 9.5026 168.039 8.56673 167.339 7.80176C166.639 7.03678 165.752 6.6543 164.678 6.6543C163.652 6.6543 162.773 7.02865 162.041 7.77734C161.309 8.52604 160.942 9.47005 160.942 10.6094V26.4541C160.942 27.5446 161.309 28.4886 162.041 29.2861C162.773 30.0674 163.652 30.458 164.678 30.458ZM194.634 36H178.472C178.341 36 178.276 35.9186 178.276 35.7559L178.325 1.4541C178.325 1.29134 178.407 1.20996 178.569 1.20996H184.136C184.299 1.20996 184.38 1.29134 184.38 1.4541L184.331 29.8477H194.634C194.797 29.8477 194.878 29.929 194.878 30.0918V35.7559C194.878 35.9186 194.797 36 194.634 36ZM204.009 36H198.394C198.231 36 198.149 35.9186 198.149 35.7559L198.247 1.40527C198.247 1.27507 198.312 1.20996 198.442 1.20996H214.458C214.621 1.20996 214.702 1.27507 214.702 1.40527V7.04492C214.702 7.17513 214.637 7.24023 214.507 7.24023H204.253V15.0039H214.507C214.637 15.0039 214.702 15.0853 214.702 15.248L214.751 20.9121C214.751 21.0423 214.67 21.1074 214.507 21.1074H204.253V35.7559C204.253 35.9186 204.172 36 204.009 36Z" fill="white"/>
</g>
<defs>
<filter id="filter0_d_233_2" x="0.390625" y="0.648438" width="224.36" height="71.8398" filterUnits="userSpaceOnUse" color-interpolation-filters="sRGB">
<feFlood flood-opacity="0" result="BackgroundImageFix"/>
<feColorMatrix in="SourceAlpha" type="matrix" values="0 0 0 0 0 0 0 0 0 0 0 0 0 0 0 0 0 0 127 0" result="hardAlpha"/>
<feOffset dx="-5" dy="21"/>
<feGaussianBlur stdDeviation="7.5"/>
<feComposite in2="hardAlpha" operator="out"/>
<feColorMatrix type="matrix" values="0 0 0 0 0.85 0 0 0 0 0.120417 0 0 0 0 0.120417 0 0 0 0.25 0"/>
<feBlend mode="normal" in2="BackgroundImageFix" result="effect1_dropShadow_233_2"/>
<feBlend mode="normal" in="SourceGraphic" in2="effect1_dropShadow_233_2" result="shape"/>
</filter>
</defs>
</svg>
