<svg width="342" height="94" viewBox="0 0 342 94" fill="none" xmlns="http://www.w3.org/2000/svg">
<g filter="url(#filter0_d_12_28)">
<path d="M40.2344 57H30.5469C30.3125 57 30.1823 56.8698 30.1562 56.6094L20.7031 1.64844C20.651 1.4401 20.7292 1.33594 20.9375 1.33594H29.9219C30.1302 1.33594 30.2604 1.4401 30.3125 1.64844L35.4297 37.7812L40.7031 1.64844C40.7552 1.4401 40.9115 1.33594 41.1719 1.33594H48.3984C48.6068 1.33594 48.737 1.4401 48.7891 1.64844L53.9844 37.7812L59.1797 1.64844C59.2318 1.4401 59.362 1.33594 59.5703 1.33594H68.4766C68.737 1.33594 68.8411 1.4401 68.7891 1.64844L59.2578 56.6094C59.2318 56.7135 59.1536 56.8047 59.0234 56.8828L58.8672 57H49.1797C49.0234 57 48.8932 56.8698 48.7891 56.6094L44.6875 27.8984L40.625 56.6094C40.599 56.8698 40.4688 57 40.2344 57ZM88.2812 57.7812C85.4427 57.7812 82.8255 57.0521 80.4297 55.5938C78.0599 54.1354 76.1458 52.1953 74.6875 49.7734C73.2552 47.3255 72.5391 44.6432 72.5391 41.7266L72.6172 16.375C72.6172 13.4062 73.3333 10.737 74.7656 8.36719C76.1719 5.97135 78.0729 4.05729 80.4688 2.625C82.8646 1.16667 85.4688 0.4375 88.2812 0.4375C91.1979 0.4375 93.8151 1.15365 96.1328 2.58594C98.4766 4.01823 100.352 5.94531 101.758 8.36719C103.19 10.763 103.906 13.4323 103.906 16.375L103.984 41.7266C103.984 44.6432 103.281 47.3125 101.875 49.7344C100.443 52.1823 98.5417 54.1354 96.1719 55.5938C93.8021 57.0521 91.1719 57.7812 88.2812 57.7812ZM88.2812 48.1328C89.8958 48.1328 91.3021 47.4818 92.5 46.1797C93.6979 44.8516 94.2969 43.3672 94.2969 41.7266L94.2188 16.375C94.2188 14.6042 93.6589 13.1068 92.5391 11.8828C91.4193 10.6589 90 10.0469 88.2812 10.0469C86.6406 10.0469 85.2344 10.6458 84.0625 11.8438C82.8906 13.0417 82.3047 14.5521 82.3047 16.375V41.7266C82.3047 43.4714 82.8906 44.9818 84.0625 46.2578C85.2344 47.5078 86.6406 48.1328 88.2812 48.1328ZM119.414 57H110.352C110.143 57 110.039 56.8698 110.039 56.6094L110.195 1.64844C110.195 1.4401 110.299 1.33594 110.508 1.33594H126.68C129.57 1.33594 132.227 2.03906 134.648 3.44531C137.07 4.85156 138.997 6.73958 140.43 9.10938C141.888 11.4792 142.617 14.1615 142.617 17.1562C142.617 19.1094 142.318 20.8802 141.719 22.4688C141.12 24.0573 140.417 25.3984 139.609 26.4922C138.828 27.5859 138.112 28.3932 137.461 28.9141C140.352 32.1172 141.797 35.8802 141.797 40.2031L141.875 56.6094C141.875 56.8698 141.745 57 141.484 57H132.422C132.214 57 132.109 56.9219 132.109 56.7656V40.2031C132.109 38.276 131.432 36.6094 130.078 35.2031C128.724 33.7969 127.057 33.0938 125.078 33.0938H119.805L119.727 56.6094C119.727 56.8698 119.622 57 119.414 57ZM126.68 10.9062H119.805V23.4844H126.68C128.32 23.4844 129.779 22.8724 131.055 21.6484C132.357 20.4245 133.008 18.9271 133.008 17.1562C133.008 15.4635 132.383 14.0052 131.133 12.7812C129.883 11.5312 128.398 10.9062 126.68 10.9062ZM163.359 56.9219L149.023 57C148.763 57 148.633 56.8698 148.633 56.6094L148.789 1.64844C148.789 1.4401 148.893 1.33594 149.102 1.33594L164.062 1.25781C167.031 1.17969 169.714 1.85677 172.109 3.28906C174.531 4.72135 176.458 6.66146 177.891 9.10938C179.349 11.5312 180.078 14.2135 180.078 17.1562V40.125C180.078 43.1979 179.336 46.0104 177.852 48.5625C176.341 51.0885 174.336 53.1068 171.836 54.6172C169.336 56.1016 166.51 56.8698 163.359 56.9219ZM164.062 10.8281L158.477 10.9062L158.398 47.1562H163.359C165.339 47.1562 167.005 46.4661 168.359 45.0859C169.714 43.7057 170.391 42.0521 170.391 40.125V17.0781C170.391 15.3854 169.766 13.9141 168.516 12.6641C167.266 11.388 165.781 10.776 164.062 10.8281ZM203.438 57H193.75C193.516 57 193.385 56.8698 193.359 56.6094L183.906 1.64844C183.854 1.4401 183.932 1.33594 184.141 1.33594H193.125C193.333 1.33594 193.464 1.4401 193.516 1.64844L198.633 37.7812L203.906 1.64844C203.958 1.4401 204.115 1.33594 204.375 1.33594H211.602C211.81 1.33594 211.94 1.4401 211.992 1.64844L217.188 37.7812L222.383 1.64844C222.435 1.4401 222.565 1.33594 222.773 1.33594H231.68C231.94 1.33594 232.044 1.4401 231.992 1.64844L222.461 56.6094C222.435 56.7135 222.357 56.8047 222.227 56.8828L222.07 57H212.383C212.227 57 212.096 56.8698 211.992 56.6094L207.891 27.8984L203.828 56.6094C203.802 56.8698 203.672 57 203.438 57ZM251.484 57.7812C248.646 57.7812 246.029 57.0521 243.633 55.5938C241.263 54.1354 239.349 52.1953 237.891 49.7734C236.458 47.3255 235.742 44.6432 235.742 41.7266L235.82 16.375C235.82 13.4062 236.536 10.737 237.969 8.36719C239.375 5.97135 241.276 4.05729 243.672 2.625C246.068 1.16667 248.672 0.4375 251.484 0.4375C254.401 0.4375 257.018 1.15365 259.336 2.58594C261.68 4.01823 263.555 5.94531 264.961 8.36719C266.393 10.763 267.109 13.4323 267.109 16.375L267.188 41.7266C267.188 44.6432 266.484 47.3125 265.078 49.7344C263.646 52.1823 261.745 54.1354 259.375 55.5938C257.005 57.0521 254.375 57.7812 251.484 57.7812ZM251.484 48.1328C253.099 48.1328 254.505 47.4818 255.703 46.1797C256.901 44.8516 257.5 43.3672 257.5 41.7266L257.422 16.375C257.422 14.6042 256.862 13.1068 255.742 11.8828C254.622 10.6589 253.203 10.0469 251.484 10.0469C249.844 10.0469 248.438 10.6458 247.266 11.8438C246.094 13.0417 245.508 14.5521 245.508 16.375V41.7266C245.508 43.4714 246.094 44.9818 247.266 46.2578C248.438 47.5078 249.844 48.1328 251.484 48.1328ZM299.414 57H273.555C273.346 57 273.242 56.8698 273.242 56.6094L273.32 1.72656C273.32 1.46615 273.451 1.33594 273.711 1.33594H282.617C282.878 1.33594 283.008 1.46615 283.008 1.72656L282.93 47.1562H299.414C299.674 47.1562 299.805 47.2865 299.805 47.5469V56.6094C299.805 56.8698 299.674 57 299.414 57ZM314.414 57H305.43C305.169 57 305.039 56.8698 305.039 56.6094L305.195 1.64844C305.195 1.4401 305.299 1.33594 305.508 1.33594H331.133C331.393 1.33594 331.523 1.4401 331.523 1.64844V10.6719C331.523 10.8802 331.419 10.9844 331.211 10.9844H314.805V23.4062H331.211C331.419 23.4062 331.523 23.5365 331.523 23.7969L331.602 32.8594C331.602 33.0677 331.471 33.1719 331.211 33.1719H314.805V56.6094C314.805 56.8698 314.674 57 314.414 57Z" fill="white"/>
</g>
<defs>
<filter id="filter0_d_12_28" x="0.625" y="0.4375" width="340.977" height="93.3438" filterUnits="userSpaceOnUse" color-interpolation-filters="sRGB">
<feFlood flood-opacity="0" result="BackgroundImageFix"/>
<feColorMatrix in="SourceAlpha" type="matrix" values="0 0 0 0 0 0 0 0 0 0 0 0 0 0 0 0 0 0 127 0" result="hardAlpha"/>
<feOffset dx="-5" dy="21"/>
<feGaussianBlur stdDeviation="7.5"/>
<feComposite in2="hardAlpha" operator="out"/>
<feColorMatrix type="matrix" values="0 0 0 0 0.85 0 0 0 0 0.120417 0 0 0 0 0.120417 0 0 0 0.25 0"/>
<feBlend mode="normal" in2="BackgroundImageFix" result="effect1_dropShadow_12_28"/>
<feBlend mode="normal" in="SourceGraphic" in2="effect1_dropShadow_12_28" result="shape"/>
</filter>
</defs>
</svg>
