<svg width="10" height="28" viewBox="0 0 10 28" fill="none" xmlns="http://www.w3.org/2000/svg">
<path d="M9.26677 1.11091C9.16962 1.00805 9.0344 0.95 8.89304 0.95H1.46438C1.32299 0.95 1.18774 1.00807 1.09058 1.11097L1.12694 1.1453L1.09066 1.11089C0.993461 1.21338 0.942986 1.35163 0.950787 1.49296L0.950788 1.49297L1.87937 18.2074L1.92929 18.2047L1.87937 18.2075C1.89452 18.4796 2.11998 18.6931 2.39296 18.6931H7.96445C8.23745 18.6931 8.46287 18.4796 8.47825 18.2075L8.47825 18.2074L9.40684 1.49297L9.40684 1.49288C9.4144 1.35168 9.36422 1.21345 9.26677 1.11091Z" fill="white" stroke="white" stroke-width="0.1"/>
<path d="M7.96449 20.4502H2.393C2.1092 20.4502 1.87871 20.6807 1.87871 20.9645V26.536C1.87871 26.8198 2.1092 27.0503 2.393 27.0503H7.96449C8.24829 27.0503 8.47878 26.8198 8.47878 26.536V20.9645C8.47878 20.6807 8.24829 20.4502 7.96449 20.4502Z" fill="white" stroke="white" stroke-width="0.1"/>
</svg>
